<svg width="548" height="571" viewBox="0 0 548 571" fill="none" xmlns="http://www.w3.org/2000/svg">
<rect width="548" height="571" fill="white"/>
<path d="M351.139 331.322C331.14 332.122 314.473 327.322 308.64 324.822C342.24 297.222 333.306 250.655 324.64 230.822C298.24 171.622 258.641 156.562 244.641 154.322C240.474 153.655 230.141 152.322 222.141 154.322C166.142 171.922 141.475 226.988 136.142 252.322C134.563 259.822 134.642 271.822 136.142 280.322C139.142 301.322 158.808 324.322 169.142 332.322C155.942 359.922 178.475 430.822 191.641 462.322C192.041 464.722 180.475 475.655 174.642 480.822C185.441 481.622 188.808 483.822 189.141 484.822C190.341 484.822 178.642 494.822 172.642 499.822L200.641 500.322C201.841 500.322 202.808 505.322 203.141 507.822L245.641 493.322C285.64 480.122 279.974 466.822 272.14 461.822C290.54 431.822 298.807 394.988 300.64 380.322C305.84 385.522 310.14 395.155 311.64 399.322C318.04 391.722 321.64 383.488 322.64 380.322C327.04 383.922 331.473 396.488 333.14 402.322C344.739 383.522 351.306 365.822 353.139 359.322C364.339 366.122 377.139 364.655 381.639 362.822C397.639 353.222 389.639 339.488 383.639 333.822C372.039 325.422 357.139 328.655 351.139 331.322Z" fill="black"/>
<path d="M306.64 243.322C294.64 201.722 255.307 190.655 237.141 190.322C181.542 190.322 163.308 232.322 161.142 253.322C160.742 270.122 166.975 281.988 170.142 285.822C179.742 298.222 192.141 302.988 197.141 303.822C204.341 304.222 206.141 309.322 206.141 311.822C208.541 320.622 215.474 323.488 218.641 323.822C221.041 324.222 222.641 322.988 223.141 322.322C225.141 320.322 227.641 321.488 228.641 322.322C229.841 323.522 233.474 323.822 235.141 323.822C239.941 324.222 242.141 322.988 242.641 322.322C245.041 319.922 247.307 321.322 248.141 322.322C249.741 324.322 252.807 324.155 254.141 323.822C262.541 321.822 265.307 314.988 265.64 311.822C266.04 306.622 270.474 304.322 272.64 303.822C284.24 301.022 295.14 290.655 299.14 285.822C309.94 273.822 308.64 252.488 306.64 243.322Z" fill="white"/>
<path d="M284.64 252.822C284.64 234.422 271.64 229.822 265.14 229.822C249.541 229.822 245.974 245.155 246.141 252.822C246.141 269.222 258.807 275.322 265.14 276.322C280.74 276.722 284.64 260.822 284.64 252.822Z" fill="black"/>
<path d="M223.641 252.822C223.641 234.422 210.641 229.822 204.141 229.822C188.541 229.822 184.975 245.155 185.141 252.822C185.141 269.222 197.808 275.322 204.141 276.322C219.741 276.722 223.641 260.822 223.641 252.822Z" fill="black"/>
<path d="M242.641 289.822C242.641 286.822 240.141 282.822 238.641 281.322C237.985 280.615 234.141 278.822 230.641 281.822C227.957 284.123 226.641 288.655 226.641 289.822C226.641 295.022 232.474 296.322 235.641 296.322C241.641 295.922 242.641 292.151 242.641 289.822Z" fill="black"/>
<path d="M320.116 497.783L403.972 152.746L395.386 148.304L301.285 495.386L320.116 497.783Z" fill="black"/>
<path d="M422.153 162.303L414.239 160.082L369.523 327.855L316.274 497.293L338.382 500.107L422.153 162.303Z" fill="black"/>
<path d="M206.828 103.927C182.824 121.723 155.906 154.937 145.448 169.319C140.839 175.402 143.502 177.442 145.41 177.702C147.443 178.212 150.503 176.881 151.78 175.89L159.442 169.942C197.767 137.272 244.252 128.652 262.703 128.426C282.561 126.795 313.382 129.985 326.311 131.784C333.433 132.52 356.812 139.955 367.611 143.58C371.677 145.019 404.018 159.002 419.68 165.814C422.727 167.207 426.458 167.688 427.942 167.754C434.555 168.468 437.504 163.813 438.151 161.396L443.351 137.521C445.431 127.972 438.329 122.799 434.518 121.407C427.413 116.898 375.236 99.8998 350.035 91.9645C335.806 87.1382 315.702 86.9414 307.428 87.4463L294.699 88.4513C230.542 93.9781 209.386 101.071 206.828 103.927Z" fill="black"/>
<path d="M236.043 114.655C195.793 123.345 164.392 153.565 153.722 167.588C200.216 129.83 249.582 122.071 268.453 122.911L323.157 125.346C342.491 127.045 385.419 144.537 404.466 153.071L407.045 145.849C408.599 140.049 403.486 135.909 400.735 134.563C378.397 122.25 339.75 114.555 323.218 112.247L297.138 111.086C282.888 110.871 250.471 113.376 236.043 114.655Z" fill="white"/>
<path d="M309.329 496.409C301.607 495.426 302.136 486.562 303.768 482.304L296.529 481.382L292.486 500.294L347.184 507.257L350.02 488.191L343.183 487.321C341.062 498.841 330.455 499.545 325.417 498.457L309.329 496.409Z" fill="white"/>
<path d="M345.243 400.496C344.522 399.734 344.774 397.757 345.193 394.46L341.172 393.949L323.513 462.039L332.361 463.165L352.433 395.382L348.411 394.87C347.096 400.062 345.843 401.13 345.243 400.496Z" fill="black"/>
<path d="M341.306 210.931C339.697 183.163 326.891 173.608 318.202 169.391C313.584 166.805 316.929 165.861 319.68 166.752C346.551 178.508 350.325 204.499 348.854 216.025C347.105 222.629 341.2 213.183 341.306 210.931Z" fill="black"/>
<path d="M361.264 216.691C359.655 188.923 348.572 188.273 339.883 184.056C335.265 181.47 338.61 180.527 341.361 181.417C368.232 193.173 368.001 190.347 366.529 201.873C364.781 208.477 361.158 218.943 361.264 216.691Z" fill="black"/>
<path d="M335.822 180.876C345.864 169.97 336.774 156.525 330.974 151.165C328.033 148.189 338.253 146.633 340.272 148.167C358.738 164.271 345.398 181.777 339.374 185.365C335.137 187.024 334.803 181.657 335.822 180.876Z" fill="black"/>
</svg>
